<?xml version="1.0" encoding="UTF-8" standalone="no"?>
<!DOCTYPE svg PUBLIC "-//W3C//DTD SVG 1.1//EN" "http://www.w3.org/Graphics/SVG/1.1/DTD/svg11.dtd">
<svg width="100%" height="100%" viewBox="0 0 250 250" version="1.1" xmlns="http://www.w3.org/2000/svg" xmlns:xlink="http://www.w3.org/1999/xlink" xml:space="preserve" xmlns:serif="http://www.serif.com/" style="fill-rule:evenodd;clip-rule:evenodd;stroke-linejoin:round;stroke-miterlimit:2;">
    <g id="Layer-1" serif:id="Layer 1" transform="matrix(1,0,0,1,0,-802.362)">
        <g id="path2987-1" transform="matrix(1.29095,0,0,1.13704,-28.8371,-134.855)">
            <path d="M205.635,1003.95C198.727,1017.11 203.479,1028.08 211.627,1032.76C201.218,1034.95 190.18,1034.48 179.422,1034.48C181.637,1025.11 180.92,1014.78 180.92,1004.81C189.481,1004.56 200.353,1003.96 205.635,1003.95Z" style="fill:rgb(83,108,83);fill-rule:nonzero;"/>
        </g>
        <g id="path2987" transform="matrix(1.29095,0,0,1.13704,-28.8371,-134.855)">
            <path d="M32.255,1007.19C39.164,1020.36 34.412,1031.33 26.264,1036C36.673,1038.2 47.711,1037.72 58.468,1037.72C56.254,1028.36 56.971,1018.03 56.971,1008.06C48.409,1007.81 37.538,1007.21 32.255,1007.2Z" style="fill:rgb(83,108,83);fill-rule:nonzero;"/>
        </g>
        <g id="path2985" transform="matrix(1.29095,0,0,1.13704,-28.8371,-134.855)">
            <path d="M38.996,993.005C90.618,986.614 148.784,976.303 198.52,993.435C195.605,1003.87 191.08,1013.66 192.154,1023.53C141.657,1014.68 89.826,1023.53 39.37,1023.53C45.295,1012.65 42.463,1003.62 38.996,993.005Z" style="fill:rgb(111,145,111);fill-rule:nonzero;"/>
        </g>
        <g transform="matrix(1.59764,0,0,1.61574,39.3472,1021.44)">
            <g id="Pixie-Point" serif:id="Pixie Point">
                <g>
                    <path d="M3.403,-15.044C3.403,-14.643 3.365,-14.11 3.289,-13.442C3.213,-12.775 3.098,-12.031 2.946,-11.211C2.66,-10.411 2.336,-9.548 1.973,-8.623C1.611,-7.698 1.273,-6.783 0.958,-5.877C0.644,-4.972 0.381,-4.104 0.172,-3.275C-0.038,-2.445 -0.143,-1.735 -0.143,-1.144C-0.143,-0.648 -0.072,-0.205 0.072,0.186C0.215,0.577 0.458,0.772 0.801,0.772C1.354,0.772 1.783,0.296 2.088,-0.658C2.279,-1.287 2.479,-2.012 2.688,-2.831C2.898,-3.651 3.098,-4.509 3.289,-5.406C3.48,-6.302 3.661,-7.203 3.832,-8.108C4.004,-9.014 4.166,-9.877 4.319,-10.697C4.662,-11.574 5.096,-12.398 5.62,-13.171C6.144,-13.943 6.707,-14.615 7.307,-15.187C7.908,-15.759 8.523,-16.212 9.152,-16.545C9.781,-16.879 10.382,-17.046 10.954,-17.046C11.507,-17.046 11.95,-16.769 12.284,-16.217C12.618,-15.664 12.784,-14.987 12.784,-14.186C12.784,-13.118 12.527,-12.184 12.012,-11.383C11.497,-10.582 10.863,-9.905 10.11,-9.352C9.357,-8.799 8.561,-8.385 7.722,-8.108C6.883,-7.832 6.14,-7.694 5.491,-7.694C5.263,-7.694 5.086,-7.617 4.962,-7.465C4.838,-7.312 4.776,-7.15 4.776,-6.979C4.776,-6.769 4.843,-6.597 4.976,-6.464C5.11,-6.33 5.32,-6.264 5.606,-6.264C6.063,-6.264 6.597,-6.33 7.207,-6.464C7.817,-6.597 8.442,-6.802 9.081,-7.079C9.719,-7.355 10.349,-7.708 10.968,-8.137C11.588,-8.566 12.141,-9.085 12.627,-9.696C13.113,-10.306 13.504,-11.011 13.8,-11.812C14.095,-12.613 14.243,-13.509 14.243,-14.5C14.243,-15.034 14.176,-15.544 14.043,-16.031C13.909,-16.517 13.704,-16.941 13.428,-17.303C13.151,-17.666 12.808,-17.952 12.398,-18.161C11.988,-18.371 11.507,-18.476 10.954,-18.476C10.382,-18.476 9.815,-18.376 9.252,-18.176C8.69,-17.975 8.146,-17.694 7.622,-17.332C7.098,-16.97 6.597,-16.545 6.121,-16.059C5.644,-15.573 5.196,-15.044 4.776,-14.472C4.795,-14.624 4.805,-14.748 4.805,-14.844L4.805,-15.158C4.805,-15.54 4.772,-15.878 4.705,-16.174C4.638,-16.469 4.452,-16.617 4.147,-16.617C3.937,-16.617 3.751,-16.564 3.589,-16.46C3.427,-16.355 3.346,-16.188 3.346,-15.959C3.346,-15.807 3.356,-15.645 3.375,-15.473C3.394,-15.301 3.403,-15.158 3.403,-15.044Z" style="fill:white;fill-rule:nonzero;"/>
                    <path d="M10.439,-2.603C10.477,-2.603 10.554,-2.617 10.668,-2.646C10.782,-2.674 10.859,-2.698 10.897,-2.717C10.763,-2.412 10.663,-2.083 10.597,-1.73C10.53,-1.378 10.496,-1.068 10.496,-0.801C10.496,-0.324 10.616,0.043 10.854,0.3C11.092,0.558 11.488,0.686 12.041,0.686C12.537,0.686 13.056,0.548 13.6,0.272C14.143,-0.005 14.667,-0.334 15.173,-0.715C15.678,-1.096 16.135,-1.487 16.545,-1.888C16.955,-2.288 17.275,-2.603 17.504,-2.831C17.637,-2.965 17.704,-3.127 17.704,-3.318C17.704,-3.527 17.632,-3.704 17.489,-3.847C17.346,-3.99 17.179,-4.061 16.989,-4.061C16.779,-4.061 16.607,-3.975 16.474,-3.804C16.226,-3.518 15.897,-3.194 15.487,-2.831C15.077,-2.469 14.658,-2.131 14.229,-1.816C13.8,-1.502 13.404,-1.235 13.042,-1.015C12.68,-0.796 12.422,-0.686 12.27,-0.686C12.041,-0.686 11.926,-0.81 11.926,-1.058C11.926,-1.211 11.965,-1.401 12.041,-1.63C12.117,-1.859 12.222,-2.145 12.355,-2.488C12.546,-2.965 12.737,-3.413 12.927,-3.832C13.118,-4.252 13.314,-4.676 13.514,-5.105C13.714,-5.534 13.928,-5.968 14.157,-6.407C14.386,-6.845 14.634,-7.312 14.901,-7.808C14.958,-7.922 15.011,-8.037 15.058,-8.151C15.106,-8.266 15.13,-8.38 15.13,-8.494C15.13,-8.704 15.053,-8.876 14.901,-9.009C14.748,-9.143 14.596,-9.209 14.443,-9.209C14.234,-9.209 14.052,-9.147 13.9,-9.023C13.747,-8.9 13.595,-8.723 13.442,-8.494C13.233,-8.189 12.994,-7.817 12.727,-7.379C12.46,-6.94 12.184,-6.492 11.898,-6.035C11.612,-5.577 11.316,-5.153 11.011,-4.762C10.706,-4.371 10.401,-4.071 10.096,-3.861C10.001,-3.785 9.924,-3.704 9.867,-3.618C9.81,-3.532 9.781,-3.413 9.781,-3.26C9.781,-3.089 9.848,-2.936 9.982,-2.803C10.115,-2.669 10.268,-2.603 10.439,-2.603ZM15.673,-12.127C15.902,-12.127 16.121,-12.16 16.331,-12.227C16.541,-12.293 16.731,-12.375 16.903,-12.47C17.075,-12.565 17.213,-12.675 17.318,-12.799C17.423,-12.923 17.475,-13.042 17.475,-13.156C17.475,-13.328 17.427,-13.504 17.332,-13.685C17.237,-13.867 17.113,-14.029 16.96,-14.172C16.808,-14.315 16.641,-14.429 16.46,-14.515C16.278,-14.601 16.102,-14.643 15.931,-14.643C15.549,-14.643 15.249,-14.481 15.03,-14.157C14.81,-13.833 14.701,-13.49 14.701,-13.128C14.701,-12.861 14.777,-12.627 14.929,-12.427C15.082,-12.227 15.33,-12.127 15.673,-12.127Z" style="fill:white;fill-rule:nonzero;"/>
                    <path d="M22.652,-7.98C22.747,-7.98 22.838,-7.87 22.923,-7.651C23.009,-7.431 23.09,-7.141 23.166,-6.778C23.243,-6.416 23.324,-5.997 23.41,-5.52C23.495,-5.043 23.586,-4.557 23.681,-4.061C22.9,-3.356 22.151,-2.717 21.436,-2.145C20.721,-1.573 20.001,-1.001 19.277,-0.429C19.086,-0.296 18.991,-0.114 18.991,0.114C18.991,0.305 19.058,0.481 19.191,0.644C19.324,0.806 19.496,0.887 19.706,0.887C19.839,0.887 19.982,0.829 20.135,0.715C20.764,0.219 21.398,-0.281 22.037,-0.787C22.675,-1.292 23.329,-1.84 23.996,-2.431C24.206,-1.573 24.449,-0.829 24.725,-0.2C25.002,0.429 25.359,0.744 25.798,0.744C26.274,0.744 26.784,0.605 27.328,0.329C27.871,0.052 28.391,-0.276 28.887,-0.658C29.382,-1.039 29.84,-1.435 30.259,-1.845C30.679,-2.255 31.013,-2.593 31.26,-2.86C31.394,-2.994 31.461,-3.146 31.461,-3.318C31.461,-3.508 31.384,-3.675 31.232,-3.818C31.079,-3.961 30.898,-4.033 30.688,-4.033C30.479,-4.033 30.307,-3.947 30.174,-3.775C30.021,-3.566 29.749,-3.289 29.358,-2.946C28.968,-2.603 28.562,-2.264 28.143,-1.931C27.723,-1.597 27.328,-1.306 26.956,-1.058C26.584,-0.81 26.341,-0.686 26.227,-0.686C26.036,-0.686 25.864,-0.968 25.712,-1.53C25.559,-2.093 25.397,-2.774 25.226,-3.575C25.893,-4.185 26.579,-4.876 27.285,-5.649C27.99,-6.421 28.744,-7.293 29.544,-8.266C29.659,-8.399 29.716,-8.542 29.716,-8.695C29.716,-8.904 29.64,-9.081 29.487,-9.224C29.335,-9.367 29.163,-9.438 28.972,-9.438C28.763,-9.438 28.591,-9.352 28.458,-9.181C27.79,-8.38 27.166,-7.66 26.584,-7.021C26.003,-6.383 25.445,-5.796 24.911,-5.263C24.72,-6.54 24.449,-7.555 24.096,-8.308C23.743,-9.062 23.338,-9.438 22.88,-9.438C22.499,-9.438 22.065,-9.257 21.579,-8.895C21.093,-8.533 20.578,-8.075 20.035,-7.522C19.491,-6.969 18.929,-6.364 18.347,-5.706C17.766,-5.048 17.179,-4.424 16.588,-3.832C16.436,-3.699 16.36,-3.527 16.36,-3.318C16.36,-3.127 16.431,-2.96 16.574,-2.817C16.717,-2.674 16.874,-2.603 17.046,-2.603C17.218,-2.603 17.37,-2.669 17.504,-2.803C18.114,-3.413 18.705,-4.028 19.277,-4.648C19.849,-5.267 20.364,-5.825 20.821,-6.321C21.279,-6.816 21.67,-7.217 21.994,-7.522C22.318,-7.827 22.537,-7.98 22.652,-7.98Z" style="fill:white;fill-rule:nonzero;"/>
                    <path d="M30.574,-2.603C30.612,-2.603 30.688,-2.617 30.803,-2.646C30.917,-2.674 30.993,-2.698 31.032,-2.717C30.898,-2.412 30.798,-2.083 30.731,-1.73C30.665,-1.378 30.631,-1.068 30.631,-0.801C30.631,-0.324 30.75,0.043 30.989,0.3C31.227,0.558 31.623,0.686 32.176,0.686C32.671,0.686 33.191,0.548 33.734,0.272C34.278,-0.005 34.802,-0.334 35.307,-0.715C35.813,-1.096 36.27,-1.487 36.68,-1.888C37.09,-2.288 37.41,-2.603 37.638,-2.831C37.772,-2.965 37.839,-3.127 37.839,-3.318C37.839,-3.527 37.767,-3.704 37.624,-3.847C37.481,-3.99 37.314,-4.061 37.124,-4.061C36.914,-4.061 36.742,-3.975 36.609,-3.804C36.361,-3.518 36.032,-3.194 35.622,-2.831C35.212,-2.469 34.793,-2.131 34.364,-1.816C33.935,-1.502 33.539,-1.235 33.177,-1.015C32.814,-0.796 32.557,-0.686 32.404,-0.686C32.176,-0.686 32.061,-0.81 32.061,-1.058C32.061,-1.211 32.099,-1.401 32.176,-1.63C32.252,-1.859 32.357,-2.145 32.49,-2.488C32.681,-2.965 32.872,-3.413 33.062,-3.832C33.253,-4.252 33.448,-4.676 33.649,-5.105C33.849,-5.534 34.063,-5.968 34.292,-6.407C34.521,-6.845 34.769,-7.312 35.036,-7.808C35.093,-7.922 35.145,-8.037 35.193,-8.151C35.241,-8.266 35.264,-8.38 35.264,-8.494C35.264,-8.704 35.188,-8.876 35.036,-9.009C34.883,-9.143 34.731,-9.209 34.578,-9.209C34.368,-9.209 34.187,-9.147 34.035,-9.023C33.882,-8.9 33.73,-8.723 33.577,-8.494C33.367,-8.189 33.129,-7.817 32.862,-7.379C32.595,-6.94 32.319,-6.492 32.033,-6.035C31.747,-5.577 31.451,-5.153 31.146,-4.762C30.841,-4.371 30.536,-4.071 30.231,-3.861C30.135,-3.785 30.059,-3.704 30.002,-3.618C29.945,-3.532 29.916,-3.413 29.916,-3.26C29.916,-3.089 29.983,-2.936 30.116,-2.803C30.25,-2.669 30.402,-2.603 30.574,-2.603ZM35.808,-12.127C36.037,-12.127 36.256,-12.16 36.466,-12.227C36.675,-12.293 36.866,-12.375 37.038,-12.47C37.209,-12.565 37.348,-12.675 37.452,-12.799C37.557,-12.923 37.61,-13.042 37.61,-13.156C37.61,-13.328 37.562,-13.504 37.467,-13.685C37.371,-13.867 37.247,-14.029 37.095,-14.172C36.942,-14.315 36.776,-14.429 36.594,-14.515C36.413,-14.601 36.237,-14.643 36.065,-14.643C35.684,-14.643 35.384,-14.481 35.164,-14.157C34.945,-13.833 34.835,-13.49 34.835,-13.128C34.835,-12.861 34.912,-12.627 35.064,-12.427C35.217,-12.227 35.465,-12.127 35.808,-12.127Z" style="fill:white;fill-rule:nonzero;"/>
                    <path d="M41.928,-7.98C41.928,-7.732 41.819,-7.47 41.6,-7.193C41.38,-6.917 41.089,-6.65 40.727,-6.392C40.365,-6.135 39.965,-5.887 39.526,-5.649C39.087,-5.41 38.649,-5.196 38.21,-5.005C38.401,-5.577 38.644,-6.073 38.94,-6.492C39.235,-6.912 39.536,-7.26 39.841,-7.536C40.146,-7.813 40.441,-8.022 40.727,-8.165C41.013,-8.308 41.252,-8.38 41.442,-8.38C41.595,-8.38 41.714,-8.361 41.8,-8.323C41.886,-8.285 41.928,-8.17 41.928,-7.98ZM37.896,-2.946C37.896,-3.022 37.901,-3.089 37.91,-3.146C37.92,-3.203 37.934,-3.28 37.953,-3.375C38.506,-3.623 39.097,-3.904 39.726,-4.219C40.355,-4.533 40.942,-4.881 41.485,-5.263C42.029,-5.644 42.481,-6.073 42.844,-6.55C43.206,-7.026 43.387,-7.551 43.387,-8.123C43.387,-8.676 43.22,-9.095 42.887,-9.381C42.553,-9.667 42.138,-9.81 41.642,-9.81C41.032,-9.81 40.417,-9.624 39.798,-9.252C39.178,-8.88 38.616,-8.385 38.11,-7.765C37.605,-7.145 37.195,-6.426 36.88,-5.606C36.566,-4.786 36.409,-3.928 36.409,-3.032C36.409,-1.754 36.699,-0.777 37.281,-0.1C37.862,0.577 38.649,0.915 39.64,0.915C40.46,0.915 41.209,0.777 41.886,0.501C42.562,0.224 43.173,-0.1 43.716,-0.472C44.259,-0.844 44.727,-1.23 45.117,-1.63C45.508,-2.031 45.828,-2.345 46.076,-2.574C46.19,-2.708 46.285,-2.831 46.362,-2.946C46.438,-3.06 46.476,-3.175 46.476,-3.289C46.476,-3.499 46.404,-3.675 46.261,-3.818C46.118,-3.961 45.971,-4.033 45.818,-4.033C45.704,-4.033 45.599,-4.014 45.503,-3.975C45.408,-3.937 45.294,-3.852 45.16,-3.718C44.874,-3.432 44.55,-3.103 44.188,-2.731C43.826,-2.36 43.42,-2.007 42.972,-1.673C42.524,-1.339 42.024,-1.058 41.471,-0.829C40.918,-0.601 40.317,-0.486 39.669,-0.486C39.059,-0.486 38.611,-0.72 38.325,-1.187C38.039,-1.654 37.896,-2.24 37.896,-2.946Z" style="fill:white;fill-rule:nonzero;"/>
                    <path d="M57.401,-15.044C57.401,-14.643 57.363,-14.11 57.287,-13.442C57.211,-12.775 57.096,-12.031 56.944,-11.211C56.658,-10.411 56.334,-9.548 55.971,-8.623C55.609,-7.698 55.271,-6.783 54.956,-5.877C54.641,-4.972 54.379,-4.104 54.169,-3.275C53.96,-2.445 53.855,-1.735 53.855,-1.144C53.855,-0.648 53.926,-0.205 54.069,0.186C54.212,0.577 54.455,0.772 54.799,0.772C55.352,0.772 55.781,0.296 56.086,-0.658C56.276,-1.287 56.477,-2.012 56.686,-2.831C56.896,-3.651 57.096,-4.509 57.287,-5.406C57.478,-6.302 57.659,-7.203 57.83,-8.108C58.002,-9.014 58.164,-9.877 58.317,-10.697C58.66,-11.574 59.094,-12.398 59.618,-13.171C60.142,-13.943 60.705,-14.615 61.305,-15.187C61.906,-15.759 62.521,-16.212 63.15,-16.545C63.779,-16.879 64.38,-17.046 64.952,-17.046C65.505,-17.046 65.948,-16.769 66.282,-16.217C66.615,-15.664 66.782,-14.987 66.782,-14.186C66.782,-13.118 66.525,-12.184 66.01,-11.383C65.495,-10.582 64.861,-9.905 64.108,-9.352C63.355,-8.799 62.559,-8.385 61.72,-8.108C60.881,-7.832 60.137,-7.694 59.489,-7.694C59.26,-7.694 59.084,-7.617 58.96,-7.465C58.836,-7.312 58.774,-7.15 58.774,-6.979C58.774,-6.769 58.841,-6.597 58.974,-6.464C59.108,-6.33 59.318,-6.264 59.604,-6.264C60.061,-6.264 60.595,-6.33 61.205,-6.464C61.815,-6.597 62.44,-6.802 63.079,-7.079C63.717,-7.355 64.347,-7.708 64.966,-8.137C65.586,-8.566 66.139,-9.085 66.625,-9.696C67.111,-10.306 67.502,-11.011 67.798,-11.812C68.093,-12.613 68.241,-13.509 68.241,-14.5C68.241,-15.034 68.174,-15.544 68.041,-16.031C67.907,-16.517 67.702,-16.941 67.426,-17.303C67.149,-17.666 66.806,-17.952 66.396,-18.161C65.986,-18.371 65.505,-18.476 64.952,-18.476C64.38,-18.476 63.813,-18.376 63.25,-18.176C62.688,-17.975 62.144,-17.694 61.62,-17.332C61.096,-16.97 60.595,-16.545 60.118,-16.059C59.642,-15.573 59.194,-15.044 58.774,-14.472C58.793,-14.624 58.803,-14.748 58.803,-14.844L58.803,-15.158C58.803,-15.54 58.769,-15.878 58.703,-16.174C58.636,-16.469 58.45,-16.617 58.145,-16.617C57.935,-16.617 57.749,-16.564 57.587,-16.46C57.425,-16.355 57.344,-16.188 57.344,-15.959C57.344,-15.807 57.354,-15.645 57.373,-15.473C57.392,-15.301 57.401,-15.158 57.401,-15.044Z" style="fill:white;fill-rule:nonzero;"/>
                    <path d="M69.871,-8.266C70.329,-8.266 70.748,-8.208 71.13,-8.094C70.634,-7.941 70.238,-7.641 69.943,-7.193C69.647,-6.745 69.499,-6.254 69.499,-5.72C69.499,-5.377 69.561,-5.048 69.685,-4.733C69.809,-4.419 69.957,-4.133 70.129,-3.875C70.3,-3.618 70.481,-3.399 70.672,-3.218C70.863,-3.036 71.034,-2.889 71.187,-2.774C70.691,-2.145 70.143,-1.621 69.542,-1.201C68.942,-0.782 68.26,-0.572 67.497,-0.572C66.811,-0.572 66.282,-0.81 65.91,-1.287C65.538,-1.764 65.352,-2.364 65.352,-3.089C65.352,-3.623 65.448,-4.195 65.638,-4.805C65.829,-5.415 66.115,-5.978 66.496,-6.492C66.878,-7.007 67.35,-7.431 67.912,-7.765C68.475,-8.099 69.128,-8.266 69.871,-8.266ZM74.133,-5.949C74.133,-6.426 74.047,-6.816 73.875,-7.122C73.704,-7.427 73.503,-7.655 73.275,-7.808C73.046,-7.96 72.808,-8.065 72.56,-8.123C72.312,-8.18 72.121,-8.208 71.988,-8.208C72.14,-8.361 72.216,-8.552 72.216,-8.78C72.216,-9.085 72.054,-9.295 71.73,-9.41C71.463,-9.505 71.177,-9.576 70.872,-9.624C70.567,-9.672 70.243,-9.696 69.9,-9.696C68.87,-9.696 67.984,-9.467 67.24,-9.009C66.496,-8.552 65.877,-7.984 65.381,-7.307C64.885,-6.631 64.518,-5.906 64.28,-5.134C64.041,-4.362 63.922,-3.651 63.922,-3.003C63.922,-2.488 63.994,-1.997 64.137,-1.53C64.28,-1.063 64.494,-0.653 64.78,-0.3C65.066,0.052 65.433,0.334 65.881,0.543C66.329,0.753 66.868,0.858 67.497,0.858C68.069,0.858 68.598,0.777 69.085,0.615C69.571,0.453 70.024,0.234 70.443,-0.043C70.863,-0.319 71.239,-0.634 71.573,-0.987C71.907,-1.339 72.216,-1.716 72.502,-2.116C72.846,-2.021 73.17,-1.973 73.475,-1.973C73.952,-1.973 74.39,-2.064 74.79,-2.245C75.191,-2.426 75.496,-2.66 75.706,-2.946C75.801,-3.098 75.849,-3.232 75.849,-3.346C75.849,-3.537 75.772,-3.694 75.62,-3.818C75.467,-3.942 75.296,-4.004 75.105,-4.004C74.857,-4.004 74.657,-3.899 74.504,-3.689C74.428,-3.613 74.314,-3.551 74.161,-3.504C74.009,-3.456 73.78,-3.432 73.475,-3.432L73.36,-3.432C73.456,-3.566 73.551,-3.737 73.646,-3.947C73.742,-4.157 73.823,-4.381 73.89,-4.619C73.956,-4.857 74.013,-5.096 74.061,-5.334C74.109,-5.572 74.133,-5.777 74.133,-5.949ZM72.703,-5.949C72.703,-5.529 72.641,-5.167 72.517,-4.862C72.393,-4.557 72.216,-4.242 71.988,-3.918C71.568,-4.204 71.287,-4.543 71.144,-4.934C71.001,-5.324 70.929,-5.634 70.929,-5.863C70.929,-6.473 71.254,-6.778 71.902,-6.778C72.245,-6.778 72.464,-6.712 72.56,-6.578C72.655,-6.445 72.703,-6.235 72.703,-5.949Z" style="fill:white;fill-rule:nonzero;"/>
                    <path d="M74.962,-2.603C75,-2.603 75.076,-2.617 75.191,-2.646C75.305,-2.674 75.382,-2.698 75.42,-2.717C75.286,-2.412 75.186,-2.083 75.119,-1.73C75.053,-1.378 75.019,-1.068 75.019,-0.801C75.019,-0.324 75.138,0.043 75.377,0.3C75.615,0.558 76.011,0.686 76.564,0.686C77.059,0.686 77.579,0.548 78.122,0.272C78.666,-0.005 79.19,-0.334 79.695,-0.715C80.201,-1.096 80.658,-1.487 81.068,-1.888C81.478,-2.288 81.798,-2.603 82.026,-2.831C82.16,-2.965 82.227,-3.127 82.227,-3.318C82.227,-3.527 82.155,-3.704 82.012,-3.847C81.869,-3.99 81.702,-4.061 81.512,-4.061C81.302,-4.061 81.13,-3.975 80.997,-3.804C80.749,-3.518 80.42,-3.194 80.01,-2.831C79.6,-2.469 79.181,-2.131 78.752,-1.816C78.323,-1.502 77.927,-1.235 77.565,-1.015C77.202,-0.796 76.945,-0.686 76.793,-0.686C76.564,-0.686 76.449,-0.81 76.449,-1.058C76.449,-1.211 76.487,-1.401 76.564,-1.63C76.64,-1.859 76.745,-2.145 76.878,-2.488C77.069,-2.965 77.26,-3.413 77.45,-3.832C77.641,-4.252 77.836,-4.676 78.037,-5.105C78.237,-5.534 78.451,-5.968 78.68,-6.407C78.909,-6.845 79.157,-7.312 79.424,-7.808C79.481,-7.922 79.533,-8.037 79.581,-8.151C79.629,-8.266 79.653,-8.38 79.653,-8.494C79.653,-8.704 79.576,-8.876 79.424,-9.009C79.271,-9.143 79.119,-9.209 78.966,-9.209C78.756,-9.209 78.575,-9.147 78.423,-9.023C78.27,-8.9 78.118,-8.723 77.965,-8.494C77.755,-8.189 77.517,-7.817 77.25,-7.379C76.983,-6.94 76.707,-6.492 76.421,-6.035C76.135,-5.577 75.839,-5.153 75.534,-4.762C75.229,-4.371 74.924,-4.071 74.619,-3.861C74.524,-3.785 74.447,-3.704 74.39,-3.618C74.333,-3.532 74.304,-3.413 74.304,-3.26C74.304,-3.089 74.371,-2.936 74.504,-2.803C74.638,-2.669 74.79,-2.603 74.962,-2.603ZM80.196,-12.127C80.425,-12.127 80.644,-12.16 80.854,-12.227C81.064,-12.293 81.254,-12.375 81.426,-12.47C81.597,-12.565 81.736,-12.675 81.841,-12.799C81.945,-12.923 81.998,-13.042 81.998,-13.156C81.998,-13.328 81.95,-13.504 81.855,-13.685C81.759,-13.867 81.636,-14.029 81.483,-14.172C81.33,-14.315 81.164,-14.429 80.982,-14.515C80.801,-14.601 80.625,-14.643 80.453,-14.643C80.072,-14.643 79.772,-14.481 79.552,-14.157C79.333,-13.833 79.224,-13.49 79.224,-13.128C79.224,-12.861 79.3,-12.627 79.452,-12.427C79.605,-12.227 79.853,-12.127 80.196,-12.127Z" style="fill:white;fill-rule:nonzero;"/>
                    <path d="M94.182,-3.775C94.01,-3.546 93.734,-3.26 93.352,-2.917C92.971,-2.574 92.57,-2.236 92.151,-1.902C91.732,-1.568 91.331,-1.282 90.95,-1.044C90.568,-0.806 90.292,-0.686 90.12,-0.686C90.368,-1.201 90.635,-1.807 90.921,-2.503C91.207,-3.198 91.469,-3.89 91.708,-4.576C91.946,-5.263 92.146,-5.896 92.308,-6.478C92.47,-7.06 92.551,-7.503 92.551,-7.808C92.551,-8.361 92.442,-8.752 92.223,-8.981C92.003,-9.209 91.722,-9.324 91.379,-9.324C91.15,-9.324 90.812,-9.214 90.363,-8.995C89.915,-8.776 89.42,-8.485 88.876,-8.123C88.333,-7.76 87.775,-7.341 87.203,-6.864C86.631,-6.387 86.116,-5.892 85.659,-5.377C85.811,-5.987 85.954,-6.583 86.088,-7.164C86.221,-7.746 86.288,-8.208 86.288,-8.552C86.288,-8.761 86.231,-8.89 86.116,-8.938C86.002,-8.985 85.868,-9.009 85.716,-9.009C85.506,-9.009 85.354,-8.985 85.258,-8.938C85.163,-8.89 85.068,-8.761 84.972,-8.552C84.553,-7.751 83.976,-6.959 83.242,-6.178C82.508,-5.396 81.759,-4.605 80.997,-3.804C80.863,-3.67 80.797,-3.499 80.797,-3.289C80.797,-3.079 80.873,-2.912 81.025,-2.789C81.178,-2.665 81.35,-2.603 81.54,-2.603C81.712,-2.603 81.874,-2.679 82.026,-2.831C82.236,-3.041 82.513,-3.322 82.856,-3.675C83.199,-4.028 83.476,-4.338 83.685,-4.605C83.514,-4.033 83.328,-3.494 83.128,-2.989C82.927,-2.483 82.732,-2.012 82.541,-1.573C82.484,-1.42 82.422,-1.23 82.355,-1.001C82.289,-0.772 82.255,-0.61 82.255,-0.515C82.255,0.038 82.617,0.315 83.342,0.315C83.876,-0.715 84.419,-1.63 84.972,-2.431C85.525,-3.232 86.112,-3.956 86.731,-4.605C87.351,-5.253 88.018,-5.844 88.733,-6.378C89.448,-6.912 90.254,-7.417 91.15,-7.894C91.15,-7.665 91.078,-7.279 90.935,-6.735C90.792,-6.192 90.607,-5.587 90.378,-4.919C90.149,-4.252 89.901,-3.566 89.634,-2.86C89.367,-2.155 89.11,-1.516 88.862,-0.944C88.805,-0.81 88.762,-0.677 88.733,-0.543C88.705,-0.41 88.69,-0.296 88.69,-0.2C88.69,0.41 89.1,0.715 89.92,0.715C90.359,0.715 90.831,0.582 91.336,0.315C91.841,0.048 92.327,-0.267 92.795,-0.629C93.262,-0.991 93.695,-1.363 94.096,-1.745C94.496,-2.126 94.811,-2.431 95.04,-2.66C95.23,-2.851 95.326,-3.06 95.326,-3.289C95.326,-3.499 95.259,-3.675 95.125,-3.818C94.992,-3.961 94.83,-4.033 94.639,-4.033C94.468,-4.033 94.315,-3.947 94.182,-3.775Z" style="fill:white;fill-rule:nonzero;"/>
                    <path d="M95.154,-2.917C95.23,-2.994 95.302,-3.06 95.369,-3.117C95.435,-3.175 95.497,-3.232 95.554,-3.289C95.345,-2.565 95.24,-1.935 95.24,-1.401C95.24,-0.715 95.431,-0.172 95.812,0.229C96.193,0.629 96.842,0.829 97.757,0.829C98.272,0.829 98.815,0.696 99.387,0.429C99.959,0.162 100.512,-0.162 101.046,-0.543C101.58,-0.925 102.075,-1.325 102.533,-1.745C102.991,-2.164 103.362,-2.536 103.648,-2.86C103.782,-2.994 103.849,-3.146 103.849,-3.318C103.849,-3.527 103.772,-3.699 103.62,-3.832C103.467,-3.966 103.296,-4.033 103.105,-4.033C102.914,-4.033 102.733,-3.947 102.562,-3.775C102.447,-3.642 102.199,-3.399 101.818,-3.046C101.437,-2.693 101.012,-2.336 100.545,-1.973C100.078,-1.611 99.616,-1.292 99.158,-1.015C98.701,-0.739 98.338,-0.601 98.071,-0.601C97.652,-0.601 97.332,-0.686 97.113,-0.858C96.894,-1.03 96.784,-1.325 96.784,-1.745C96.784,-2.164 96.88,-2.66 97.07,-3.232C97.452,-4.357 97.952,-5.61 98.572,-6.993C99.192,-8.375 99.883,-9.781 100.645,-11.211C101.313,-11.211 101.913,-11.235 102.447,-11.283C102.981,-11.331 103.467,-11.383 103.906,-11.44C104.116,-11.478 104.273,-11.559 104.378,-11.683C104.483,-11.807 104.535,-11.946 104.535,-12.098C104.535,-12.289 104.468,-12.465 104.335,-12.627C104.201,-12.789 104.001,-12.87 103.734,-12.87C103.41,-12.87 103.067,-12.837 102.705,-12.77C102.342,-12.703 101.942,-12.67 101.503,-12.67C101.808,-13.223 102.08,-13.743 102.319,-14.229C102.557,-14.715 102.752,-15.149 102.905,-15.53C103,-15.778 103.048,-15.969 103.048,-16.102C103.048,-16.503 102.79,-16.703 102.276,-16.703C101.951,-16.703 101.656,-16.445 101.389,-15.931C101.179,-15.511 100.927,-15.015 100.631,-14.443C100.336,-13.871 100.045,-13.261 99.759,-12.613C99.187,-12.613 98.639,-12.632 98.114,-12.67C97.59,-12.708 97.137,-12.727 96.756,-12.727C96.489,-12.727 96.289,-12.641 96.155,-12.47C96.022,-12.298 95.955,-12.117 95.955,-11.926C95.955,-11.755 96.007,-11.607 96.112,-11.483C96.217,-11.359 96.374,-11.297 96.584,-11.297C96.927,-11.297 97.304,-11.278 97.714,-11.24C98.124,-11.202 98.548,-11.183 98.987,-11.183C98.796,-10.801 98.61,-10.42 98.429,-10.039C98.248,-9.657 98.062,-9.286 97.871,-8.923C97.509,-8.294 97.185,-7.751 96.899,-7.293C96.613,-6.836 96.336,-6.421 96.069,-6.049C95.802,-5.677 95.516,-5.324 95.211,-4.991C94.906,-4.657 94.563,-4.309 94.182,-3.947C94.029,-3.794 93.953,-3.623 93.953,-3.432C93.953,-3.241 94.024,-3.075 94.167,-2.932C94.31,-2.789 94.477,-2.717 94.668,-2.717C94.859,-2.717 95.021,-2.784 95.154,-2.917Z" style="fill:white;fill-rule:nonzero;"/>
                </g>
            </g>
        </g>
        <g id="g3975" transform="matrix(0.852919,0,0,1.00481,-64.9366,624.32)">
            <path id="path3775-7-4" d="M148.24,315.456L218.951,350.811L294.207,309.395L319.461,181.106L121.976,181.611L148.24,315.456Z" style="fill:rgb(0,136,170);fill-rule:nonzero;"/>
            <g id="g3787" transform="matrix(1.01207,0,0,1,-2.37023,0)">
                <clipPath id="_clip1">
                    <path d="M147.987,314.951L218.698,350.306L293.954,308.89L319.208,180.601L121.723,181.106L147.987,314.951Z"/>
                </clipPath>
                <g clip-path="url(#_clip1)">
                    <path id="path3781" d="M140.411,271.514C185,285.006 180.742,264.325 205.566,247.776C220.95,237.52 257.934,234.564 272.236,241.715C261.441,264.045 216.481,266.147 210.112,283.131C225.683,303.81 274.133,301.613 296.48,293.233C309.919,273.603 301.534,247.76 307.086,225.552C311.604,207.481 332.56,192.224 322.744,175.045C278.007,178.789 230.53,156.028 185.868,165.953C172.709,168.877 162.524,179.272 148.492,181.611C136.97,183.531 126.39,176.767 116.168,180.601C99.588,214.027 136.871,243.191 140.411,271.514Z" style="fill:rgb(222,205,135);fill-rule:nonzero;"/>
                    <path id="path3785" d="M129.3,269.494C160.385,264.209 203.037,244.244 221.728,225.552C238.641,208.64 289.039,227.499 285.873,252.826C282.784,277.538 243.447,267.451 243.447,283.636C243.447,291.85 301.448,291.749 313.147,273.029C314.313,243.921 317.587,213.712 326.784,189.187C325.792,142.764 110.689,168.779 106.066,181.106L129.3,269.494Z" style="fill:rgb(45,80,22);fill-rule:nonzero;"/>
                </g>
            </g>
        </g>
    </g>
</svg>
